<?xml version="1.0" encoding="UTF-8" standalone="no"?>
<!-- Created with Inkscape (http://www.inkscape.org/) -->

<svg
   width="207.99998mm"
   height="187.33629mm"
   viewBox="0 0 207.99998 187.33629"
   version="1.1"
   id="svg5"
   xml:space="preserve"
   xmlns:inkscape="http://www.inkscape.org/namespaces/inkscape"
   xmlns:sodipodi="http://sodipodi.sourceforge.net/DTD/sodipodi-0.dtd"
   xmlns="http://www.w3.org/2000/svg"
   xmlns:svg="http://www.w3.org/2000/svg"><sodipodi:namedview
     id="namedview7"
     pagecolor="#ffffff"
     bordercolor="#000000"
     borderopacity="0.25"
     inkscape:showpageshadow="2"
     inkscape:pageopacity="0.0"
     inkscape:pagecheckerboard="0"
     inkscape:deskcolor="#d1d1d1"
     inkscape:document-units="mm"
     showgrid="false" /><defs
     id="defs2"><clipPath
       id="clip0_0_1"><rect
         width="238"
         height="237"
         fill="#ffffff"
         transform="rotate(20.234,-2982.4785,6181.8523)"
         id="rect195"
         x="0"
         y="0" /></clipPath></defs><g
     inkscape:label="Layer 1"
     inkscape:groupmode="layer"
     id="layer1"><g
       style="fill:none;stroke-width:0.990688"
       id="g238"
       transform="matrix(0.26804123,0,0,0.26610269,-384.10309,-271.69084)"><rect
         x="1433"
         y="1021"
         width="776"
         height="704"
         fill="#252525"
         id="rect134"
         style="stroke-width:0.981463" /><g
         clip-path="url(#clip0_0_1)"
         id="g145"
         style="stroke-width:0.990688"><mask
           id="mask0_0_1"
           maskUnits="userSpaceOnUse"
           x="1872"
           y="1413"
           width="306"
           height="305"><path
             fill-rule="evenodd"
             clip-rule="evenodd"
             d="m 1953.97,1413 223.31,82.31 -81.97,222.38 -223.31,-82.32 z"
             fill="#ffffff"
             id="path136" /></mask><g
           mask="url(#mask0_0_1)"
           id="g143"
           style="stroke-width:0.990688"><path
             fill-rule="evenodd"
             clip-rule="evenodd"
             d="m 2028.77,1460.01 c -5.58,-2.06 -11.74,0.77 -13.79,6.32 -2.03,5.53 0.81,11.68 6.39,13.74 5.56,2.05 11.74,-0.77 13.78,-6.31 2.04,-5.55 -0.82,-11.7 -6.38,-13.75 z m 35.07,-5.44 c 9.22,3.35 18.55,7.55 27.24,12.46 13.72,7.77 22.05,23.05 16.79,37.32 l -18.48,50.15 c -5.42,14.7 -21.8,22.35 -36.76,16.84 l -53.77,-19.82 c -18.25,-6.73 -39.3,2.98 -45.7,20.36 l -8.87,24.06 -18.49,-6.81 c -15.64,-5.77 -20.64,-20.27 -18.71,-37.27 2.56,-22.85 7.38,-35.25 19.71,-53.49 10.74,-15.93 27.83,-20.11 43.47,-14.35 l 20.18,7.44 53.79,19.83 2.47,-6.7 -53.79,-19.82 7.39,-20.07 c 5.6,-15.2 12.77,-21.94 37,-17.49 8.22,1.51 17.32,4.01 26.53,7.36 z"
             fill="#366a96"
             id="path139"
             style="stroke-width:0.981463" /><path
             fill-rule="evenodd"
             clip-rule="evenodd"
             d="m 2027.89,1650.13 c -5.54,-2.04 -11.72,0.8 -13.76,6.35 -2.06,5.58 0.79,11.75 6.34,13.79 5.57,2.06 11.72,-0.79 13.78,-6.37 2.04,-5.55 -0.79,-11.72 -6.36,-13.77 z m 77.22,-116.41 20.12,7.42 c 15.62,5.76 18.72,20.01 16.94,36.74 -2.46,23.22 -8.08,39.21 -19.79,53.71 -11.36,14.08 -21.13,22.7 -36.74,16.95 l -26.84,-9.9 -53.66,-19.78 -2.48,6.72 53.66,19.78 -7.42,20.15 c -5.63,15.26 -21.8,18.08 -36.74,16.95 -22.48,-1.69 -38.48,-8.59 -53.66,-19.78 -12.68,-9.35 -22.23,-22.41 -16.94,-36.74 l 18.55,-50.35 c 5.34,-14.49 22.05,-22.38 36.75,-16.97 l 53.66,19.78 c 17.87,6.59 39.22,-2.99 45.93,-21.19 z"
             fill="#ffc836"
             id="path141"
             style="stroke-width:0.981463" /></g></g><path
         d="m 1586.54,1187.5 c -31.27,11.56 -58.29,25.83 -77.06,39.73 l 19.35,52.34 c 23.3,-1.65 53.1,-8.4 84.38,-19.96 35.79,-13.24 66.01,-30.01 84.67,-45.74 l -17.29,-46.73 c -24.39,0.2 -58.26,7.12 -94.05,20.36 z"
         fill="#8f1e1c"
         id="path147"
         style="stroke-width:0.981463" /><path
         d="m 1694.82,1201.3 c -1.86,-2.19 -3.22,-5.33 -3.59,-8.7 -0.66,-6.05 2.15,-10.57 6.26,-10.11 1.02,0.12 2.02,0.53 2.97,1.18 0.06,-0.02 0.11,-0.04 0.17,-0.06 0,0 15.25,8.7 10.98,27.27 0.1,0.92 -10.13,28.51 -14.04,30.72 -2.56,1.44 -4.37,-22.69 -2.75,-40.3 z"
         fill="#8f1e1c"
         id="path149"
         style="stroke-width:0.981463" /><path
         d="m 1520.25,1263.05 c 0.41,-2.76 -0.3,-6.05 -2.2,-9.03 -3.4,-5.34 -9.29,-7.66 -13.17,-5.2 -0.96,0.61 -1.71,1.46 -2.24,2.48 -0.07,0.01 -0.14,0.02 -0.21,0.03 0,0 -9.69,14.92 7.15,28.13 0.52,0.82 29.48,18.49 34.95,18.34 3.58,-0.1 -10.8,-21 -24.28,-34.75 z"
         fill="#8f1e1c"
         id="path151"
         style="stroke-width:0.981463" /><path
         d="m 1502.01,1271.42 v 0.01 c 0.06,0.02 0.11,0.03 0,-0.01 z"
         fill="#e33a25"
         id="path153"
         style="stroke-width:0.981463" /><path
         d="m 1708.19,1174.88 c -0.48,-0.65 -0.96,-1.3 -1.44,-1.94 l 3.39,-13.26 c 0.34,-1.35 -0.02,-2.8 -0.96,-3.85 -0.94,-1.04 -2.32,-1.52 -3.65,-1.27 l -13.1,2.47 c -0.84,-0.8 -1.69,-1.58 -2.55,-2.34 l 0.8,-13.77 c 0.08,-1.41 -0.55,-2.77 -1.66,-3.61 -1.11,-0.84 -2.54,-1.04 -3.8,-0.52 l -12.34,5.08 c -0.96,-0.6 -1.92,-1.19 -2.9,-1.77 l -1.82,-13.77 c -0.19,-1.4 -1.06,-2.61 -2.3,-3.22 -1.24,-0.6 -2.68,-0.5 -3.81,0.25 l -11.07,7.51 c -1.05,-0.41 -2.11,-0.8 -3.17,-1.18 l -4.38,-13.2 c -0.44,-1.34 -1.52,-2.37 -2.85,-2.71 -1.33,-0.35 -2.71,0.04 -3.67,1.01 l -9.37,9.61 c -1.11,-0.19 -2.22,-0.37 -3.33,-0.53 l -6.77,-12.11 c -0.68,-1.23 -1.93,-2.02 -3.29,-2.09 -1.36,-0.08 -2.64,0.58 -3.38,1.73 l -7.32,11.36 c -1.12,0.03 -2.24,0.09 -3.37,0.16 l -8.88,-10.58 c -0.9,-1.08 -2.26,-1.61 -3.61,-1.4 -1.33,0.2 -2.46,1.11 -2.96,2.39 l -5,12.7 c -1.08,0.26 -2.15,0.53 -3.22,0.83 l -10.69,-8.67 c -1.08,-0.87 -2.51,-1.12 -3.78,-0.65 -1.27,0.47 -2.2,1.59 -2.45,2.96 l -2.48,13.53 c -1,0.47 -2,0.97 -2.99,1.47 l -12.06,-6.39 c -1.22,-0.65 -2.66,-0.6 -3.81,0.11 -1.15,0.72 -1.84,2.01 -1.82,3.41 l 0.14,13.81 c -0.9,0.68 -1.79,1.37 -2.67,2.07 l -12.94,-3.86 c -1.32,-0.39 -2.72,-0.06 -3.7,0.88 -0.99,0.94 -1.42,2.36 -1.14,3.74 l 2.75,13.6 c -0.75,0.84 -1.48,1.7 -2.2,2.57 l -13.36,-1.2 c -1.36,-0.13 -2.67,0.49 -3.45,1.61 -0.78,1.13 -0.93,2.61 -0.4,3.91 l 5.26,12.89 c -0.56,0.97 -1.1,1.95 -1.64,2.94 l -13.29,1.51 c -1.35,0.16 -2.5,1.03 -3.05,2.29 -0.56,1.27 -0.42,2.76 0.34,3.94 l 7.57,11.65 c -0.36,1.07 -0.71,2.14 -1.04,3.23 l -12.68,4.17 c -1.28,0.43 -2.25,1.5 -2.55,2.87 -0.3,1.35 0.11,2.8 1.09,3.81 l 9.56,9.94 c -0.15,1.14 -0.29,2.28 -0.41,3.43 l -11.56,6.65 c -1.17,0.68 -1.9,1.94 -1.94,3.35 -0.03,1.4 0.64,2.74 1.78,3.54 l 11.2,7.86 c 0.01,0.21 0.03,0.42 0.04,0.62 l -2.43,5.74 16.4,11.23 c 0,0 121.01,9.46 199.57,-72.88 10.23,-6.02 6.61,-23.66 6.61,-23.66 z"
         fill="#e43a25"
         id="path155"
         style="stroke-width:0.981463" /><path
         d="m 1613.59,1200.1 c 0,0 6.81,-16.76 22.88,-8.46 0,0 15.17,13.38 9.27,25.05 0,0 -10.39,17.14 -22.88,8.47 0,0 -13.21,-5.56 -9.27,-25.06 z"
         fill="#030404"
         id="path157"
         style="stroke-width:0.981463" /><path
         d="m 1628.55,1199.85 c 1.81,4.88 0.4,9.9 -3.15,11.21 -3.55,1.31 -7.88,-1.58 -9.69,-6.46 -1.8,-4.88 -0.39,-9.9 3.16,-11.21 3.54,-1.31 7.88,1.58 9.68,6.46 z"
         fill="#ffffff"
         id="path159"
         style="stroke-width:0.981463" /><path
         d="m 1561.26,1215.56 c 0,0 16.41,-15.94 28.94,1.47 0,0 13.97,20.53 -7.28,29.84 0,0 -29.68,4.91 -21.66,-31.31 z"
         fill="#030404"
         id="path161"
         style="stroke-width:0.981463" /><path
         d="m 1574.22,1220.31 c 1.86,5.03 0.4,10.2 -3.25,11.56 -3.66,1.35 -8.13,-1.64 -9.99,-6.67 -1.87,-5.03 -0.41,-10.2 3.25,-11.55 3.66,-1.36 8.13,1.63 9.99,6.66 z"
         fill="#ffffff"
         id="path163"
         style="stroke-width:0.981463" /><path
         d="m 1506.35,1272.83 c 1.51,-3.92 6.51,-9.85 4.38,-14.12 -3.81,-7.64 -12.57,-11.01 -19.56,-7.53 -1.73,0.87 -3.19,2.07 -4.35,3.51 -0.12,0.02 -0.24,0.03 -0.35,0.05 0,0 -20.15,21.19 2.82,40.19 0.58,1.17 41.67,26.63 50.51,26.45 5.78,-0.11 -16.03,-28.81 -33.45,-48.55 z"
         fill="#e43a25"
         id="path165"
         style="stroke-width:0.981463" /><path
         d="m 1705.97,1197.78 c -3.95,-1.42 -12.76,-0.79 -14.59,-5.2 -3.29,-7.88 -0.1,-16.71 7.1,-19.71 1.79,-0.74 3.66,-1.06 5.51,-0.99 0.09,-0.08 0.18,-0.16 0.27,-0.24 0,0 29.21,-1.36 28.53,28.44 0.5,1.21 -7.15,48.94 -13.06,55.5 -3.87,4.3 -10.24,-31.71 -13.76,-57.8 z"
         fill="#e43a25"
         id="path167"
         style="stroke-width:0.981463" /><path
         d="m 1524.92,1264.97 c 0,0 11.73,32.74 46.39,28.2 l 1.71,-15.85 c 0,0 -22.33,10.8 -34.74,-17.29 z"
         fill="#e43a25"
         id="path169"
         style="stroke-width:0.981463" /><path
         d="m 1687.71,1204.77 c 0,0 12.39,32.5 -16.88,51.6 l -11.62,-10.93 c 0,0 23.99,-6.32 15.14,-35.73 z"
         fill="#e43a25"
         id="path171"
         style="stroke-width:0.981463" /><path
         d="m 1676.92,1246.58 c -9.11,-9.85 -26.34,-8.72 -38.48,2.51 -10.69,9.89 -13.87,24.31 -8.27,34.34 9.91,-3.84 20.36,-8.43 30.21,-13.79 0,0 -2.47,12.19 -8.3,24.19 6.65,-0.68 13.57,-3.73 19.35,-9.07 12.14,-11.24 14.6,-28.33 5.49,-38.18 z"
         fill="#e43a25"
         id="path173"
         style="stroke-width:0.981463" /><path
         d="m 1593.28,1293.82 c 0,0 13.75,-3.11 31.84,-9.3 -2.6,-11.87 -15.57,-20.65 -30.92,-20.23 -16.96,0.47 -30.4,12 -30.02,25.75 0.38,13.75 14.44,24.52 31.4,24.05 7.51,-0.21 14.34,-2.59 19.58,-6.37 -11.98,-5.43 -21.88,-13.9 -21.88,-13.9 z"
         fill="#e43a25"
         id="path175"
         style="stroke-width:0.981463" /><path
         d="m 1558,1199 28.5,5.5"
         stroke="#000000"
         stroke-width="4.95344"
         id="path177" /><path
         d="M 1628.48,1176.38 1607,1197.62"
         stroke="#000000"
         stroke-width="4.95344"
         id="path179" /><path
         d="m 2014,1456 25,-5"
         stroke="#000000"
         stroke-width="4.95344"
         id="path181" /><path
         d="m 2010,1681 25,-5"
         stroke="#000000"
         stroke-width="4.95344"
         id="path183" /><path
         d="m 1760,1166 h 312 v 201"
         stroke="#6d1f6e"
         id="path185"
         style="stroke-width:0.981463" /><path
         d="m 1760,1098 h 395 v 289"
         stroke="#128135"
         id="path187"
         style="stroke-width:0.981463" /><path
         d="M 1834,1585 H 1551 V 1384"
         stroke="#128135"
         id="path189"
         style="stroke-width:0.981463" /><path
         opacity="0.7"
         d="M 1898,1653 H 1475 V 1357"
         stroke="#6d1f6e"
         id="path191"
         style="stroke-width:0.981463" /><path
         d="m 1805.6,1357.6 c -1.2,5.05 -2.45,9.9 -3.75,14.55 -1.25,4.6 -2.57,9.07 -3.98,13.42 -1.39,4.35 -2.89,8.63 -4.49,12.83 -1.55,4.2 -3.25,8.4 -5.1,12.6 l -9.38,0.9 c -1.85,-4.1 -3.57,-8.23 -5.17,-12.38 -1.55,-4.2 -3.03,-8.47 -4.43,-12.82 -1.4,-4.4 -2.75,-8.93 -4.05,-13.57 -1.25,-4.66 -2.47,-9.53 -3.67,-14.63 l 10.2,-0.9 c 1.75,7.45 3.52,15.02 5.32,22.72 1.8,7.7 3.95,15.1 6.45,22.2 1.25,-3.45 2.4,-6.9 3.45,-10.35 1.1,-3.5 2.1,-7.07 3,-10.72 0.95,-3.65 1.85,-7.38 2.7,-11.18 0.9,-3.8 1.78,-7.72 2.63,-11.77 z m 20.87,45.75 c 3.15,0 5.47,-0.55 6.97,-1.65 1.55,-1.1 2.33,-2.7 2.33,-4.8 0,-1.3 -0.28,-2.4 -0.83,-3.3 -0.55,-0.9 -1.3,-1.68 -2.25,-2.33 -0.9,-0.65 -1.97,-1.2 -3.22,-1.65 -1.2,-0.5 -2.45,-0.97 -3.75,-1.42 -2.4,-0.8 -4.58,-1.6 -6.53,-2.4 -1.9,-0.8 -3.55,-1.73 -4.95,-2.78 -1.35,-1.1 -2.4,-2.42 -3.15,-3.97 -0.75,-1.6 -1.12,-3.58 -1.12,-5.92 0,-3.26 0.65,-5.88 1.95,-7.88 1.35,-2.05 3.02,-3.63 5.02,-4.73 2,-1.15 4.18,-1.9 6.53,-2.25 2.4,-0.4 4.62,-0.6 6.67,-0.6 2.6,0 5.05,0.2 7.35,0.6 2.35,0.4 4.4,0.8 6.15,1.2 v 8.7 c -2.4,-0.7 -4.87,-1.27 -7.42,-1.72 -2.55,-0.45 -4.88,-0.68 -6.98,-0.68 -3.6,0 -6.22,0.65 -7.87,1.95 -1.65,1.25 -2.48,2.78 -2.48,4.58 0,1.35 0.38,2.47 1.13,3.37 0.8,0.9 1.75,1.68 2.85,2.33 1.15,0.65 2.35,1.17 3.6,1.57 1.3,0.35 2.47,0.68 3.52,0.98 1.8,0.5 3.6,1.12 5.4,1.87 1.8,0.7 3.43,1.65 4.88,2.85 1.5,1.2 2.7,2.7 3.6,4.5 0.9,1.75 1.35,3.93 1.35,6.53 0,2.6 -0.48,4.87 -1.43,6.82 -0.9,1.95 -2.2,3.58 -3.9,4.88 -1.65,1.3 -3.62,2.27 -5.92,2.92 -2.3,0.66 -4.83,0.98 -7.58,0.98 -2.4,0 -5.1,-0.25 -8.1,-0.75 -2.95,-0.5 -5.85,-1.28 -8.7,-2.33 l -0.3,-9.22 c 0.9,0.45 2.03,0.9 3.38,1.35 1.35,0.4 2.8,0.8 4.35,1.2 1.6,0.35 3.2,0.65 4.8,0.9 1.65,0.2 3.2,0.3 4.65,0.3 z"
         fill="#ffffff"
         id="path193"
         style="stroke-width:0.981463" /></g></g></svg>
